<?xml version="1.0" encoding="utf-8" standalone="no"?>
<!DOCTYPE svg PUBLIC "-//W3C//DTD SVG 1.1//EN"
  "http://www.w3.org/Graphics/SVG/1.1/DTD/svg11.dtd">
<svg xmlns:xlink="http://www.w3.org/1999/xlink" width="460.8pt" height="345.6pt" viewBox="0 0 460.8 345.6" xmlns="http://www.w3.org/2000/svg" version="1.1">
 <metadata>
  <rdf:RDF xmlns:dc="http://purl.org/dc/elements/1.1/" xmlns:cc="http://creativecommons.org/ns#" xmlns:rdf="http://www.w3.org/1999/02/22-rdf-syntax-ns#">
   <cc:Work>
    <dc:type rdf:resource="http://purl.org/dc/dcmitype/StillImage"/>
    <dc:date>1980-01-01T00:00:00+00:00</dc:date>
    <dc:format>image/svg+xml</dc:format>
    <dc:creator>
     <cc:Agent>
      <dc:title>Matplotlib v3.10.3, https://matplotlib.org/</dc:title>
     </cc:Agent>
    </dc:creator>
   </cc:Work>
  </rdf:RDF>
 </metadata>
 <defs>
  <style type="text/css">*{stroke-linejoin: round; stroke-linecap: butt}</style>
 </defs>
 <g id="figure_1">
  <g id="patch_1">
   <path d="M 0 345.6 
L 460.8 345.6 
L 460.8 0 
L 0 0 
z
" style="fill: #ffffff"/>
  </g>
  <g id="axes_1">
   <g id="patch_2">
    <path d="M 69.77 303.64 
L 450 303.64 
L 450 10.8 
L 69.77 10.8 
z
" style="fill: #ffffff"/>
   </g>
   <g id="patch_3">
    <path d="M 87.053182 303.64 
L 90.283683 303.64 
L 90.283683 24.744762 
L 87.053182 24.744762 
z
" clip-path="url(#p52f9ba61de)" style="fill: #1f77b4; fill-opacity: 0.75; stroke: #000000; stroke-width: 0.303415; stroke-linejoin: miter"/>
   </g>
   <g id="patch_4">
    <path d="M 90.283683 303.64 
L 93.514184 303.64 
L 93.514184 303.64 
L 90.283683 303.64 
z
" clip-path="url(#p52f9ba61de)" style="fill: #1f77b4; fill-opacity: 0.75; stroke: #000000; stroke-width: 0.303415; stroke-linejoin: miter"/>
   </g>
   <g id="patch_5">
    <path d="M 93.514184 303.64 
L 96.744686 303.64 
L 96.744686 303.64 
L 93.514184 303.64 
z
" clip-path="url(#p52f9ba61de)" style="fill: #1f77b4; fill-opacity: 0.75; stroke: #000000; stroke-width: 0.303415; stroke-linejoin: miter"/>
   </g>
   <g id="patch_6">
    <path d="M 96.744686 303.64 
L 99.975187 303.64 
L 99.975187 303.597482 
L 96.744686 303.597482 
z
" clip-path="url(#p52f9ba61de)" style="fill: #1f77b4; fill-opacity: 0.75; stroke: #000000; stroke-width: 0.303415; stroke-linejoin: miter"/>
   </g>
   <g id="patch_7">
    <path d="M 99.975187 303.64 
L 103.205688 303.64 
L 103.205688 298.445937 
L 99.975187 298.445937 
z
" clip-path="url(#p52f9ba61de)" style="fill: #1f77b4; fill-opacity: 0.75; stroke: #000000; stroke-width: 0.303415; stroke-linejoin: miter"/>
   </g>
   <g id="patch_8">
    <path d="M 103.205688 303.64 
L 106.436189 303.64 
L 106.436189 300.248155 
L 103.205688 300.248155 
z
" clip-path="url(#p52f9ba61de)" style="fill: #1f77b4; fill-opacity: 0.75; stroke: #000000; stroke-width: 0.303415; stroke-linejoin: miter"/>
   </g>
   <g id="patch_9">
    <path d="M 106.436189 303.64 
L 109.666691 303.64 
L 109.666691 299.094681 
L 106.436189 299.094681 
z
" clip-path="url(#p52f9ba61de)" style="fill: #1f77b4; fill-opacity: 0.75; stroke: #000000; stroke-width: 0.303415; stroke-linejoin: miter"/>
   </g>
   <g id="patch_10">
    <path d="M 109.666691 303.64 
L 112.897192 303.64 
L 112.897192 297.809538 
L 109.666691 297.809538 
z
" clip-path="url(#p52f9ba61de)" style="fill: #1f77b4; fill-opacity: 0.75; stroke: #000000; stroke-width: 0.303415; stroke-linejoin: miter"/>
   </g>
   <g id="patch_11">
    <path d="M 112.897192 303.64 
L 116.127693 303.64 
L 116.127693 299.473229 
L 112.897192 299.473229 
z
" clip-path="url(#p52f9ba61de)" style="fill: #1f77b4; fill-opacity: 0.75; stroke: #000000; stroke-width: 0.303415; stroke-linejoin: miter"/>
   </g>
   <g id="patch_12">
    <path d="M 116.127693 303.64 
L 119.358195 303.64 
L 119.358195 300.260499 
L 116.127693 300.260499 
z
" clip-path="url(#p52f9ba61de)" style="fill: #1f77b4; fill-opacity: 0.75; stroke: #000000; stroke-width: 0.303415; stroke-linejoin: miter"/>
   </g>
   <g id="patch_13">
    <path d="M 119.358195 303.64 
L 122.588696 303.64 
L 122.588696 300.80089 
L 119.358195 300.80089 
z
" clip-path="url(#p52f9ba61de)" style="fill: #1f77b4; fill-opacity: 0.75; stroke: #000000; stroke-width: 0.303415; stroke-linejoin: miter"/>
   </g>
   <g id="patch_14">
    <path d="M 122.588696 303.64 
L 125.819197 303.64 
L 125.819197 300.614359 
L 122.588696 300.614359 
z
" clip-path="url(#p52f9ba61de)" style="fill: #1f77b4; fill-opacity: 0.75; stroke: #000000; stroke-width: 0.303415; stroke-linejoin: miter"/>
   </g>
   <g id="patch_15">
    <path d="M 125.819197 303.64 
L 129.049698 303.64 
L 129.049698 299.855892 
L 125.819197 299.855892 
z
" clip-path="url(#p52f9ba61de)" style="fill: #1f77b4; fill-opacity: 0.75; stroke: #000000; stroke-width: 0.303415; stroke-linejoin: miter"/>
   </g>
   <g id="patch_16">
    <path d="M 129.049698 303.64 
L 132.2802 303.64 
L 132.2802 298.912265 
L 129.049698 298.912265 
z
" clip-path="url(#p52f9ba61de)" style="fill: #1f77b4; fill-opacity: 0.75; stroke: #000000; stroke-width: 0.303415; stroke-linejoin: miter"/>
   </g>
   <g id="patch_17">
    <path d="M 132.2802 303.64 
L 135.510701 303.64 
L 135.510701 297.911033 
L 132.2802 297.911033 
z
" clip-path="url(#p52f9ba61de)" style="fill: #1f77b4; fill-opacity: 0.75; stroke: #000000; stroke-width: 0.303415; stroke-linejoin: miter"/>
   </g>
   <g id="patch_18">
    <path d="M 135.510701 303.64 
L 138.741202 303.64 
L 138.741202 296.587486 
L 135.510701 296.587486 
z
" clip-path="url(#p52f9ba61de)" style="fill: #1f77b4; fill-opacity: 0.75; stroke: #000000; stroke-width: 0.303415; stroke-linejoin: miter"/>
   </g>
   <g id="patch_19">
    <path d="M 138.741202 303.64 
L 141.971703 303.64 
L 141.971703 295.428526 
L 138.741202 295.428526 
z
" clip-path="url(#p52f9ba61de)" style="fill: #1f77b4; fill-opacity: 0.75; stroke: #000000; stroke-width: 0.303415; stroke-linejoin: miter"/>
   </g>
   <g id="patch_20">
    <path d="M 141.971703 303.64 
L 145.202205 303.64 
L 145.202205 294.021315 
L 141.971703 294.021315 
z
" clip-path="url(#p52f9ba61de)" style="fill: #1f77b4; fill-opacity: 0.75; stroke: #000000; stroke-width: 0.303415; stroke-linejoin: miter"/>
   </g>
   <g id="patch_21">
    <path d="M 145.202205 303.64 
L 148.432706 303.64 
L 148.432706 293.085917 
L 145.202205 293.085917 
z
" clip-path="url(#p52f9ba61de)" style="fill: #1f77b4; fill-opacity: 0.75; stroke: #000000; stroke-width: 0.303415; stroke-linejoin: miter"/>
   </g>
   <g id="patch_22">
    <path d="M 148.432706 303.64 
L 151.663207 303.64 
L 151.663207 292.047653 
L 148.432706 292.047653 
z
" clip-path="url(#p52f9ba61de)" style="fill: #1f77b4; fill-opacity: 0.75; stroke: #000000; stroke-width: 0.303415; stroke-linejoin: miter"/>
   </g>
   <g id="patch_23">
    <path d="M 151.663207 303.64 
L 154.893709 303.64 
L 154.893709 291.034077 
L 151.663207 291.034077 
z
" clip-path="url(#p52f9ba61de)" style="fill: #1f77b4; fill-opacity: 0.75; stroke: #000000; stroke-width: 0.303415; stroke-linejoin: miter"/>
   </g>
   <g id="patch_24">
    <path d="M 154.893709 303.64 
L 158.12421 303.64 
L 158.12421 290.061648 
L 154.893709 290.061648 
z
" clip-path="url(#p52f9ba61de)" style="fill: #1f77b4; fill-opacity: 0.75; stroke: #000000; stroke-width: 0.303415; stroke-linejoin: miter"/>
   </g>
   <g id="patch_25">
    <path d="M 158.12421 303.64 
L 161.354711 303.64 
L 161.354711 289.595321 
L 158.12421 289.595321 
z
" clip-path="url(#p52f9ba61de)" style="fill: #1f77b4; fill-opacity: 0.75; stroke: #000000; stroke-width: 0.303415; stroke-linejoin: miter"/>
   </g>
   <g id="patch_26">
    <path d="M 161.354711 303.64 
L 164.585212 303.64 
L 164.585212 289.133108 
L 161.354711 289.133108 
z
" clip-path="url(#p52f9ba61de)" style="fill: #1f77b4; fill-opacity: 0.75; stroke: #000000; stroke-width: 0.303415; stroke-linejoin: miter"/>
   </g>
   <g id="patch_27">
    <path d="M 164.585212 303.64 
L 167.815714 303.64 
L 167.815714 289.179741 
L 164.585212 289.179741 
z
" clip-path="url(#p52f9ba61de)" style="fill: #1f77b4; fill-opacity: 0.75; stroke: #000000; stroke-width: 0.303415; stroke-linejoin: miter"/>
   </g>
   <g id="patch_28">
    <path d="M 167.815714 303.64 
L 171.046215 303.64 
L 171.046215 288.953435 
L 167.815714 288.953435 
z
" clip-path="url(#p52f9ba61de)" style="fill: #1f77b4; fill-opacity: 0.75; stroke: #000000; stroke-width: 0.303415; stroke-linejoin: miter"/>
   </g>
   <g id="patch_29">
    <path d="M 171.046215 303.64 
L 174.276716 303.64 
L 174.276716 289.513028 
L 171.046215 289.513028 
z
" clip-path="url(#p52f9ba61de)" style="fill: #1f77b4; fill-opacity: 0.75; stroke: #000000; stroke-width: 0.303415; stroke-linejoin: miter"/>
   </g>
   <g id="patch_30">
    <path d="M 174.276716 303.64 
L 177.507218 303.64 
L 177.507218 290.049304 
L 174.276716 290.049304 
z
" clip-path="url(#p52f9ba61de)" style="fill: #1f77b4; fill-opacity: 0.75; stroke: #000000; stroke-width: 0.303415; stroke-linejoin: miter"/>
   </g>
   <g id="patch_31">
    <path d="M 177.507218 303.64 
L 180.737719 303.64 
L 180.737719 290.544434 
L 177.507218 290.544434 
z
" clip-path="url(#p52f9ba61de)" style="fill: #1f77b4; fill-opacity: 0.75; stroke: #000000; stroke-width: 0.303415; stroke-linejoin: miter"/>
   </g>
   <g id="patch_32">
    <path d="M 180.737719 303.64 
L 183.96822 303.64 
L 183.96822 290.829716 
L 180.737719 290.829716 
z
" clip-path="url(#p52f9ba61de)" style="fill: #1f77b4; fill-opacity: 0.75; stroke: #000000; stroke-width: 0.303415; stroke-linejoin: miter"/>
   </g>
   <g id="patch_33">
    <path d="M 183.96822 303.64 
L 187.198721 303.64 
L 187.198721 291.488061 
L 183.96822 291.488061 
z
" clip-path="url(#p52f9ba61de)" style="fill: #1f77b4; fill-opacity: 0.75; stroke: #000000; stroke-width: 0.303415; stroke-linejoin: miter"/>
   </g>
   <g id="patch_34">
    <path d="M 187.198721 303.64 
L 190.429223 303.64 
L 190.429223 291.922842 
L 187.198721 291.922842 
z
" clip-path="url(#p52f9ba61de)" style="fill: #1f77b4; fill-opacity: 0.75; stroke: #000000; stroke-width: 0.303415; stroke-linejoin: miter"/>
   </g>
   <g id="patch_35">
    <path d="M 190.429223 303.64 
L 193.659724 303.64 
L 193.659724 292.475577 
L 190.429223 292.475577 
z
" clip-path="url(#p52f9ba61de)" style="fill: #1f77b4; fill-opacity: 0.75; stroke: #000000; stroke-width: 0.303415; stroke-linejoin: miter"/>
   </g>
   <g id="patch_36">
    <path d="M 193.659724 303.64 
L 196.890225 303.64 
L 196.890225 292.989909 
L 193.659724 292.989909 
z
" clip-path="url(#p52f9ba61de)" style="fill: #1f77b4; fill-opacity: 0.75; stroke: #000000; stroke-width: 0.303415; stroke-linejoin: miter"/>
   </g>
   <g id="patch_37">
    <path d="M 196.890225 303.64 
L 200.120726 303.64 
L 200.120726 293.535786 
L 196.890225 293.535786 
z
" clip-path="url(#p52f9ba61de)" style="fill: #1f77b4; fill-opacity: 0.75; stroke: #000000; stroke-width: 0.303415; stroke-linejoin: miter"/>
   </g>
   <g id="patch_38">
    <path d="M 200.120726 303.64 
L 203.351228 303.64 
L 203.351228 294.152984 
L 200.120726 294.152984 
z
" clip-path="url(#p52f9ba61de)" style="fill: #1f77b4; fill-opacity: 0.75; stroke: #000000; stroke-width: 0.303415; stroke-linejoin: miter"/>
   </g>
   <g id="patch_39">
    <path d="M 203.351228 303.64 
L 206.581729 303.64 
L 206.581729 294.427294 
L 203.351228 294.427294 
z
" clip-path="url(#p52f9ba61de)" style="fill: #1f77b4; fill-opacity: 0.75; stroke: #000000; stroke-width: 0.303415; stroke-linejoin: miter"/>
   </g>
   <g id="patch_40">
    <path d="M 206.581729 303.64 
L 209.81223 303.64 
L 209.81223 295.040377 
L 206.581729 295.040377 
z
" clip-path="url(#p52f9ba61de)" style="fill: #1f77b4; fill-opacity: 0.75; stroke: #000000; stroke-width: 0.303415; stroke-linejoin: miter"/>
   </g>
   <g id="patch_41">
    <path d="M 209.81223 303.64 
L 213.042732 303.64 
L 213.042732 295.514934 
L 209.81223 295.514934 
z
" clip-path="url(#p52f9ba61de)" style="fill: #1f77b4; fill-opacity: 0.75; stroke: #000000; stroke-width: 0.303415; stroke-linejoin: miter"/>
   </g>
   <g id="patch_42">
    <path d="M 213.042732 303.64 
L 216.273233 303.64 
L 216.273233 295.908569 
L 213.042732 295.908569 
z
" clip-path="url(#p52f9ba61de)" style="fill: #1f77b4; fill-opacity: 0.75; stroke: #000000; stroke-width: 0.303415; stroke-linejoin: miter"/>
   </g>
   <g id="patch_43">
    <path d="M 216.273233 303.64 
L 219.503734 303.64 
L 219.503734 296.488735 
L 216.273233 296.488735 
z
" clip-path="url(#p52f9ba61de)" style="fill: #1f77b4; fill-opacity: 0.75; stroke: #000000; stroke-width: 0.303415; stroke-linejoin: miter"/>
   </g>
   <g id="patch_44">
    <path d="M 219.503734 303.64 
L 222.734235 303.64 
L 222.734235 296.89197 
L 219.503734 296.89197 
z
" clip-path="url(#p52f9ba61de)" style="fill: #1f77b4; fill-opacity: 0.75; stroke: #000000; stroke-width: 0.303415; stroke-linejoin: miter"/>
   </g>
   <g id="patch_45">
    <path d="M 222.734235 303.64 
L 225.964737 303.64 
L 225.964737 297.173138 
L 222.734235 297.173138 
z
" clip-path="url(#p52f9ba61de)" style="fill: #1f77b4; fill-opacity: 0.75; stroke: #000000; stroke-width: 0.303415; stroke-linejoin: miter"/>
   </g>
   <g id="patch_46">
    <path d="M 225.964737 303.64 
L 229.195238 303.64 
L 229.195238 297.639466 
L 225.964737 297.639466 
z
" clip-path="url(#p52f9ba61de)" style="fill: #1f77b4; fill-opacity: 0.75; stroke: #000000; stroke-width: 0.303415; stroke-linejoin: miter"/>
   </g>
   <g id="patch_47">
    <path d="M 229.195238 303.64 
L 232.425739 303.64 
L 232.425739 297.787593 
L 229.195238 297.787593 
z
" clip-path="url(#p52f9ba61de)" style="fill: #1f77b4; fill-opacity: 0.75; stroke: #000000; stroke-width: 0.303415; stroke-linejoin: miter"/>
   </g>
   <g id="patch_48">
    <path d="M 232.425739 303.64 
L 235.65624 303.64 
L 235.65624 298.074247 
L 232.425739 298.074247 
z
" clip-path="url(#p52f9ba61de)" style="fill: #1f77b4; fill-opacity: 0.75; stroke: #000000; stroke-width: 0.303415; stroke-linejoin: miter"/>
   </g>
   <g id="patch_49">
    <path d="M 235.65624 303.64 
L 238.886742 303.64 
L 238.886742 298.349929 
L 235.65624 298.349929 
z
" clip-path="url(#p52f9ba61de)" style="fill: #1f77b4; fill-opacity: 0.75; stroke: #000000; stroke-width: 0.303415; stroke-linejoin: miter"/>
   </g>
   <g id="patch_50">
    <path d="M 238.886742 303.64 
L 242.117243 303.64 
L 242.117243 298.760023 
L 238.886742 298.760023 
z
" clip-path="url(#p52f9ba61de)" style="fill: #1f77b4; fill-opacity: 0.75; stroke: #000000; stroke-width: 0.303415; stroke-linejoin: miter"/>
   </g>
   <g id="patch_51">
    <path d="M 242.117243 303.64 
L 245.347744 303.64 
L 245.347744 298.920494 
L 242.117243 298.920494 
z
" clip-path="url(#p52f9ba61de)" style="fill: #1f77b4; fill-opacity: 0.75; stroke: #000000; stroke-width: 0.303415; stroke-linejoin: miter"/>
   </g>
   <g id="patch_52">
    <path d="M 245.347744 303.64 
L 248.578246 303.64 
L 248.578246 299.175602 
L 245.347744 299.175602 
z
" clip-path="url(#p52f9ba61de)" style="fill: #1f77b4; fill-opacity: 0.75; stroke: #000000; stroke-width: 0.303415; stroke-linejoin: miter"/>
   </g>
   <g id="patch_53">
    <path d="M 248.578246 303.64 
L 251.808747 303.64 
L 251.808747 299.329216 
L 248.578246 299.329216 
z
" clip-path="url(#p52f9ba61de)" style="fill: #1f77b4; fill-opacity: 0.75; stroke: #000000; stroke-width: 0.303415; stroke-linejoin: miter"/>
   </g>
   <g id="patch_54">
    <path d="M 251.808747 303.64 
L 255.039248 303.64 
L 255.039248 299.506146 
L 251.808747 299.506146 
z
" clip-path="url(#p52f9ba61de)" style="fill: #1f77b4; fill-opacity: 0.75; stroke: #000000; stroke-width: 0.303415; stroke-linejoin: miter"/>
   </g>
   <g id="patch_55">
    <path d="M 255.039248 303.64 
L 258.269749 303.64 
L 258.269749 299.768112 
L 255.039248 299.768112 
z
" clip-path="url(#p52f9ba61de)" style="fill: #1f77b4; fill-opacity: 0.75; stroke: #000000; stroke-width: 0.303415; stroke-linejoin: miter"/>
   </g>
   <g id="patch_56">
    <path d="M 258.269749 303.64 
L 261.500251 303.64 
L 261.500251 299.838061 
L 258.269749 299.838061 
z
" clip-path="url(#p52f9ba61de)" style="fill: #1f77b4; fill-opacity: 0.75; stroke: #000000; stroke-width: 0.303415; stroke-linejoin: miter"/>
   </g>
   <g id="patch_57">
    <path d="M 261.500251 303.64 
L 264.730752 303.64 
L 264.730752 299.884694 
L 261.500251 299.884694 
z
" clip-path="url(#p52f9ba61de)" style="fill: #1f77b4; fill-opacity: 0.75; stroke: #000000; stroke-width: 0.303415; stroke-linejoin: miter"/>
   </g>
   <g id="patch_58">
    <path d="M 264.730752 303.64 
L 267.961253 303.64 
L 267.961253 300.100028 
L 264.730752 300.100028 
z
" clip-path="url(#p52f9ba61de)" style="fill: #1f77b4; fill-opacity: 0.75; stroke: #000000; stroke-width: 0.303415; stroke-linejoin: miter"/>
   </g>
   <g id="patch_59">
    <path d="M 267.961253 303.64 
L 271.191754 303.64 
L 271.191754 300.15489 
L 267.961253 300.15489 
z
" clip-path="url(#p52f9ba61de)" style="fill: #1f77b4; fill-opacity: 0.75; stroke: #000000; stroke-width: 0.303415; stroke-linejoin: miter"/>
   </g>
   <g id="patch_60">
    <path d="M 271.191754 303.64 
L 274.422256 303.64 
L 274.422256 300.352393 
L 271.191754 300.352393 
z
" clip-path="url(#p52f9ba61de)" style="fill: #1f77b4; fill-opacity: 0.75; stroke: #000000; stroke-width: 0.303415; stroke-linejoin: miter"/>
   </g>
   <g id="patch_61">
    <path d="M 274.422256 303.64 
L 277.652757 303.64 
L 277.652757 300.260499 
L 274.422256 300.260499 
z
" clip-path="url(#p52f9ba61de)" style="fill: #1f77b4; fill-opacity: 0.75; stroke: #000000; stroke-width: 0.303415; stroke-linejoin: miter"/>
   </g>
   <g id="patch_62">
    <path d="M 277.652757 303.64 
L 280.883258 303.64 
L 280.883258 300.364737 
L 277.652757 300.364737 
z
" clip-path="url(#p52f9ba61de)" style="fill: #1f77b4; fill-opacity: 0.75; stroke: #000000; stroke-width: 0.303415; stroke-linejoin: miter"/>
   </g>
   <g id="patch_63">
    <path d="M 280.883258 303.64 
L 284.11376 303.64 
L 284.11376 300.399026 
L 280.883258 300.399026 
z
" clip-path="url(#p52f9ba61de)" style="fill: #1f77b4; fill-opacity: 0.75; stroke: #000000; stroke-width: 0.303415; stroke-linejoin: miter"/>
   </g>
   <g id="patch_64">
    <path d="M 284.11376 303.64 
L 287.344261 303.64 
L 287.344261 300.356508 
L 284.11376 300.356508 
z
" clip-path="url(#p52f9ba61de)" style="fill: #1f77b4; fill-opacity: 0.75; stroke: #000000; stroke-width: 0.303415; stroke-linejoin: miter"/>
   </g>
   <g id="patch_65">
    <path d="M 287.344261 303.64 
L 290.574762 303.64 
L 290.574762 300.545782 
L 287.344261 300.545782 
z
" clip-path="url(#p52f9ba61de)" style="fill: #1f77b4; fill-opacity: 0.75; stroke: #000000; stroke-width: 0.303415; stroke-linejoin: miter"/>
   </g>
   <g id="patch_66">
    <path d="M 290.574762 303.64 
L 293.805263 303.64 
L 293.805263 300.363365 
L 290.574762 300.363365 
z
" clip-path="url(#p52f9ba61de)" style="fill: #1f77b4; fill-opacity: 0.75; stroke: #000000; stroke-width: 0.303415; stroke-linejoin: miter"/>
   </g>
   <g id="patch_67">
    <path d="M 293.805263 303.64 
L 297.035765 303.64 
L 297.035765 300.418227 
L 293.805263 300.418227 
z
" clip-path="url(#p52f9ba61de)" style="fill: #1f77b4; fill-opacity: 0.75; stroke: #000000; stroke-width: 0.303415; stroke-linejoin: miter"/>
   </g>
   <g id="patch_68">
    <path d="M 297.035765 303.64 
L 300.266266 303.64 
L 300.266266 300.407255 
L 297.035765 300.407255 
z
" clip-path="url(#p52f9ba61de)" style="fill: #1f77b4; fill-opacity: 0.75; stroke: #000000; stroke-width: 0.303415; stroke-linejoin: miter"/>
   </g>
   <g id="patch_69">
    <path d="M 300.266266 303.64 
L 303.496767 303.64 
L 303.496767 300.231696 
L 300.266266 300.231696 
z
" clip-path="url(#p52f9ba61de)" style="fill: #1f77b4; fill-opacity: 0.75; stroke: #000000; stroke-width: 0.303415; stroke-linejoin: miter"/>
   </g>
   <g id="patch_70">
    <path d="M 303.496767 303.64 
L 306.727268 303.64 
L 306.727268 300.127459 
L 303.496767 300.127459 
z
" clip-path="url(#p52f9ba61de)" style="fill: #1f77b4; fill-opacity: 0.75; stroke: #000000; stroke-width: 0.303415; stroke-linejoin: miter"/>
   </g>
   <g id="patch_71">
    <path d="M 306.727268 303.64 
L 309.95777 303.64 
L 309.95777 299.954643 
L 306.727268 299.954643 
z
" clip-path="url(#p52f9ba61de)" style="fill: #1f77b4; fill-opacity: 0.75; stroke: #000000; stroke-width: 0.303415; stroke-linejoin: miter"/>
   </g>
   <g id="patch_72">
    <path d="M 309.95777 303.64 
L 313.188271 303.64 
L 313.188271 299.851777 
L 309.95777 299.851777 
z
" clip-path="url(#p52f9ba61de)" style="fill: #1f77b4; fill-opacity: 0.75; stroke: #000000; stroke-width: 0.303415; stroke-linejoin: miter"/>
   </g>
   <g id="patch_73">
    <path d="M 313.188271 303.64 
L 316.418772 303.64 
L 316.418772 299.489688 
L 313.188271 299.489688 
z
" clip-path="url(#p52f9ba61de)" style="fill: #1f77b4; fill-opacity: 0.75; stroke: #000000; stroke-width: 0.303415; stroke-linejoin: miter"/>
   </g>
   <g id="patch_74">
    <path d="M 316.418772 303.64 
L 319.649274 303.64 
L 319.649274 299.072736 
L 316.418772 299.072736 
z
" clip-path="url(#p52f9ba61de)" style="fill: #1f77b4; fill-opacity: 0.75; stroke: #000000; stroke-width: 0.303415; stroke-linejoin: miter"/>
   </g>
   <g id="patch_75">
    <path d="M 319.649274 303.64 
L 322.879775 303.64 
L 322.879775 298.559776 
L 319.649274 298.559776 
z
" clip-path="url(#p52f9ba61de)" style="fill: #1f77b4; fill-opacity: 0.75; stroke: #000000; stroke-width: 0.303415; stroke-linejoin: miter"/>
   </g>
   <g id="patch_76">
    <path d="M 322.879775 303.64 
L 326.110276 303.64 
L 326.110276 297.692956 
L 322.879775 297.692956 
z
" clip-path="url(#p52f9ba61de)" style="fill: #1f77b4; fill-opacity: 0.75; stroke: #000000; stroke-width: 0.303415; stroke-linejoin: miter"/>
   </g>
   <g id="patch_77">
    <path d="M 326.110276 303.64 
L 329.340777 303.64 
L 329.340777 296.498335 
L 326.110276 296.498335 
z
" clip-path="url(#p52f9ba61de)" style="fill: #1f77b4; fill-opacity: 0.75; stroke: #000000; stroke-width: 0.303415; stroke-linejoin: miter"/>
   </g>
   <g id="patch_78">
    <path d="M 329.340777 303.64 
L 332.571279 303.64 
L 332.571279 294.491757 
L 329.340777 294.491757 
z
" clip-path="url(#p52f9ba61de)" style="fill: #1f77b4; fill-opacity: 0.75; stroke: #000000; stroke-width: 0.303415; stroke-linejoin: miter"/>
   </g>
   <g id="patch_79">
    <path d="M 332.571279 303.64 
L 335.80178 303.64 
L 335.80178 292.250643 
L 332.571279 292.250643 
z
" clip-path="url(#p52f9ba61de)" style="fill: #1f77b4; fill-opacity: 0.75; stroke: #000000; stroke-width: 0.303415; stroke-linejoin: miter"/>
   </g>
   <g id="patch_80">
    <path d="M 335.80178 303.64 
L 339.032281 303.64 
L 339.032281 291.235695 
L 335.80178 291.235695 
z
" clip-path="url(#p52f9ba61de)" style="fill: #1f77b4; fill-opacity: 0.75; stroke: #000000; stroke-width: 0.303415; stroke-linejoin: miter"/>
   </g>
   <g id="patch_81">
    <path d="M 339.032281 303.64 
L 342.262782 303.64 
L 342.262782 292.417972 
L 339.032281 292.417972 
z
" clip-path="url(#p52f9ba61de)" style="fill: #1f77b4; fill-opacity: 0.75; stroke: #000000; stroke-width: 0.303415; stroke-linejoin: miter"/>
   </g>
   <g id="patch_82">
    <path d="M 342.262782 303.64 
L 345.493284 303.64 
L 345.493284 295.2996 
L 342.262782 295.2996 
z
" clip-path="url(#p52f9ba61de)" style="fill: #1f77b4; fill-opacity: 0.75; stroke: #000000; stroke-width: 0.303415; stroke-linejoin: miter"/>
   </g>
   <g id="patch_83">
    <path d="M 345.493284 303.64 
L 348.723785 303.64 
L 348.723785 298.09482 
L 345.493284 298.09482 
z
" clip-path="url(#p52f9ba61de)" style="fill: #1f77b4; fill-opacity: 0.75; stroke: #000000; stroke-width: 0.303415; stroke-linejoin: miter"/>
   </g>
   <g id="patch_84">
    <path d="M 348.723785 303.64 
L 351.954286 303.64 
L 351.954286 300.005391 
L 348.723785 300.005391 
z
" clip-path="url(#p52f9ba61de)" style="fill: #1f77b4; fill-opacity: 0.75; stroke: #000000; stroke-width: 0.303415; stroke-linejoin: miter"/>
   </g>
   <g id="patch_85">
    <path d="M 351.954286 303.64 
L 355.184788 303.64 
L 355.184788 301.066971 
L 351.954286 301.066971 
z
" clip-path="url(#p52f9ba61de)" style="fill: #1f77b4; fill-opacity: 0.75; stroke: #000000; stroke-width: 0.303415; stroke-linejoin: miter"/>
   </g>
   <g id="patch_86">
    <path d="M 355.184788 303.64 
L 358.415289 303.64 
L 358.415289 301.785663 
L 355.184788 301.785663 
z
" clip-path="url(#p52f9ba61de)" style="fill: #1f77b4; fill-opacity: 0.75; stroke: #000000; stroke-width: 0.303415; stroke-linejoin: miter"/>
   </g>
   <g id="patch_87">
    <path d="M 358.415289 303.64 
L 361.64579 303.64 
L 361.64579 302.175184 
L 358.415289 302.175184 
z
" clip-path="url(#p52f9ba61de)" style="fill: #1f77b4; fill-opacity: 0.75; stroke: #000000; stroke-width: 0.303415; stroke-linejoin: miter"/>
   </g>
   <g id="patch_88">
    <path d="M 361.64579 303.64 
L 364.876291 303.64 
L 364.876291 302.463209 
L 361.64579 302.463209 
z
" clip-path="url(#p52f9ba61de)" style="fill: #1f77b4; fill-opacity: 0.75; stroke: #000000; stroke-width: 0.303415; stroke-linejoin: miter"/>
   </g>
   <g id="patch_89">
    <path d="M 364.876291 303.64 
L 368.106793 303.64 
L 368.106793 302.69363 
L 364.876291 302.69363 
z
" clip-path="url(#p52f9ba61de)" style="fill: #1f77b4; fill-opacity: 0.75; stroke: #000000; stroke-width: 0.303415; stroke-linejoin: miter"/>
   </g>
   <g id="patch_90">
    <path d="M 368.106793 303.64 
L 371.337294 303.64 
L 371.337294 302.951482 
L 368.106793 302.951482 
z
" clip-path="url(#p52f9ba61de)" style="fill: #1f77b4; fill-opacity: 0.75; stroke: #000000; stroke-width: 0.303415; stroke-linejoin: miter"/>
   </g>
   <g id="patch_91">
    <path d="M 371.337294 303.64 
L 374.567795 303.64 
L 374.567795 303.018688 
L 371.337294 303.018688 
z
" clip-path="url(#p52f9ba61de)" style="fill: #1f77b4; fill-opacity: 0.75; stroke: #000000; stroke-width: 0.303415; stroke-linejoin: miter"/>
   </g>
   <g id="patch_92">
    <path d="M 374.567795 303.64 
L 377.798297 303.64 
L 377.798297 303.120182 
L 374.567795 303.120182 
z
" clip-path="url(#p52f9ba61de)" style="fill: #1f77b4; fill-opacity: 0.75; stroke: #000000; stroke-width: 0.303415; stroke-linejoin: miter"/>
   </g>
   <g id="patch_93">
    <path d="M 377.798297 303.64 
L 381.028798 303.64 
L 381.028798 303.25048 
L 377.798297 303.25048 
z
" clip-path="url(#p52f9ba61de)" style="fill: #1f77b4; fill-opacity: 0.75; stroke: #000000; stroke-width: 0.303415; stroke-linejoin: miter"/>
   </g>
   <g id="patch_94">
    <path d="M 381.028798 303.64 
L 384.259299 303.64 
L 384.259299 303.282025 
L 381.028798 303.282025 
z
" clip-path="url(#p52f9ba61de)" style="fill: #1f77b4; fill-opacity: 0.75; stroke: #000000; stroke-width: 0.303415; stroke-linejoin: miter"/>
   </g>
   <g id="patch_95">
    <path d="M 384.259299 303.64 
L 387.4898 303.64 
L 387.4898 303.327286 
L 384.259299 303.327286 
z
" clip-path="url(#p52f9ba61de)" style="fill: #1f77b4; fill-opacity: 0.75; stroke: #000000; stroke-width: 0.303415; stroke-linejoin: miter"/>
   </g>
   <g id="patch_96">
    <path d="M 387.4898 303.64 
L 390.720302 303.64 
L 390.720302 303.378034 
L 387.4898 303.378034 
z
" clip-path="url(#p52f9ba61de)" style="fill: #1f77b4; fill-opacity: 0.75; stroke: #000000; stroke-width: 0.303415; stroke-linejoin: miter"/>
   </g>
   <g id="patch_97">
    <path d="M 390.720302 303.64 
L 393.950803 303.64 
L 393.950803 303.430153 
L 390.720302 303.430153 
z
" clip-path="url(#p52f9ba61de)" style="fill: #1f77b4; fill-opacity: 0.75; stroke: #000000; stroke-width: 0.303415; stroke-linejoin: miter"/>
   </g>
   <g id="patch_98">
    <path d="M 393.950803 303.64 
L 397.181304 303.64 
L 397.181304 303.495987 
L 393.950803 303.495987 
z
" clip-path="url(#p52f9ba61de)" style="fill: #1f77b4; fill-opacity: 0.75; stroke: #000000; stroke-width: 0.303415; stroke-linejoin: miter"/>
   </g>
   <g id="patch_99">
    <path d="M 397.181304 303.64 
L 400.411805 303.64 
L 400.411805 303.490501 
L 397.181304 303.490501 
z
" clip-path="url(#p52f9ba61de)" style="fill: #1f77b4; fill-opacity: 0.75; stroke: #000000; stroke-width: 0.303415; stroke-linejoin: miter"/>
   </g>
   <g id="patch_100">
    <path d="M 400.411805 303.64 
L 403.642307 303.64 
L 403.642307 303.51656 
L 400.411805 303.51656 
z
" clip-path="url(#p52f9ba61de)" style="fill: #1f77b4; fill-opacity: 0.75; stroke: #000000; stroke-width: 0.303415; stroke-linejoin: miter"/>
   </g>
   <g id="patch_101">
    <path d="M 403.642307 303.64 
L 406.872808 303.64 
L 406.872808 303.538505 
L 403.642307 303.538505 
z
" clip-path="url(#p52f9ba61de)" style="fill: #1f77b4; fill-opacity: 0.75; stroke: #000000; stroke-width: 0.303415; stroke-linejoin: miter"/>
   </g>
   <g id="patch_102">
    <path d="M 406.872808 303.64 
L 410.103309 303.64 
L 410.103309 303.548106 
L 406.872808 303.548106 
z
" clip-path="url(#p52f9ba61de)" style="fill: #1f77b4; fill-opacity: 0.75; stroke: #000000; stroke-width: 0.303415; stroke-linejoin: miter"/>
   </g>
   <g id="patch_103">
    <path d="M 410.103309 303.64 
L 413.333811 303.64 
L 413.333811 303.582395 
L 410.103309 303.582395 
z
" clip-path="url(#p52f9ba61de)" style="fill: #1f77b4; fill-opacity: 0.75; stroke: #000000; stroke-width: 0.303415; stroke-linejoin: miter"/>
   </g>
   <g id="patch_104">
    <path d="M 413.333811 303.64 
L 416.564312 303.64 
L 416.564312 303.57828 
L 413.333811 303.57828 
z
" clip-path="url(#p52f9ba61de)" style="fill: #1f77b4; fill-opacity: 0.75; stroke: #000000; stroke-width: 0.303415; stroke-linejoin: miter"/>
   </g>
   <g id="patch_105">
    <path d="M 416.564312 303.64 
L 419.794813 303.64 
L 419.794813 303.593367 
L 416.564312 303.593367 
z
" clip-path="url(#p52f9ba61de)" style="fill: #1f77b4; fill-opacity: 0.75; stroke: #000000; stroke-width: 0.303415; stroke-linejoin: miter"/>
   </g>
   <g id="patch_106">
    <path d="M 419.794813 303.64 
L 423.025314 303.64 
L 423.025314 303.612569 
L 419.794813 303.612569 
z
" clip-path="url(#p52f9ba61de)" style="fill: #1f77b4; fill-opacity: 0.75; stroke: #000000; stroke-width: 0.303415; stroke-linejoin: miter"/>
   </g>
   <g id="patch_107">
    <path d="M 423.025314 303.64 
L 426.255816 303.64 
L 426.255816 303.627656 
L 423.025314 303.627656 
z
" clip-path="url(#p52f9ba61de)" style="fill: #1f77b4; fill-opacity: 0.75; stroke: #000000; stroke-width: 0.303415; stroke-linejoin: miter"/>
   </g>
   <g id="patch_108">
    <path d="M 426.255816 303.64 
L 429.486317 303.64 
L 429.486317 303.633142 
L 426.255816 303.633142 
z
" clip-path="url(#p52f9ba61de)" style="fill: #1f77b4; fill-opacity: 0.75; stroke: #000000; stroke-width: 0.303415; stroke-linejoin: miter"/>
   </g>
   <g id="patch_109">
    <path d="M 429.486317 303.64 
L 432.716818 303.64 
L 432.716818 303.637257 
L 429.486317 303.637257 
z
" clip-path="url(#p52f9ba61de)" style="fill: #1f77b4; fill-opacity: 0.75; stroke: #000000; stroke-width: 0.303415; stroke-linejoin: miter"/>
   </g>
   <g id="matplotlib.axis_1">
    <g id="xtick_1">
     <g id="line2d_1">
      <defs>
       <path id="medf814d9b4" d="M 0 0 
L 0 3.5 
" style="stroke: #000000; stroke-width: 0.8"/>
      </defs>
      <g>
       <use xlink:href="#medf814d9b4" x="87.053182" y="303.64" style="stroke: #000000; stroke-width: 0.8"/>
      </g>
     </g>
     <g id="text_1">
      <!-- 0 -->
      <g transform="translate(83.871932 318.238437) scale(0.1 -0.1)">
       <defs>
        <path id="DejaVuSans-30" d="M 2034 4250 
Q 1547 4250 1301 3770 
Q 1056 3291 1056 2328 
Q 1056 1369 1301 889 
Q 1547 409 2034 409 
Q 2525 409 2770 889 
Q 3016 1369 3016 2328 
Q 3016 3291 2770 3770 
Q 2525 4250 2034 4250 
z
M 2034 4750 
Q 2819 4750 3233 4129 
Q 3647 3509 3647 2328 
Q 3647 1150 3233 529 
Q 2819 -91 2034 -91 
Q 1250 -91 836 529 
Q 422 1150 422 2328 
Q 422 3509 836 4129 
Q 1250 4750 2034 4750 
z
" transform="scale(0.015625)"/>
       </defs>
       <use xlink:href="#DejaVuSans-30"/>
      </g>
     </g>
    </g>
    <g id="xtick_2">
     <g id="line2d_2">
      <g>
       <use xlink:href="#medf814d9b4" x="142.616025" y="303.64" style="stroke: #000000; stroke-width: 0.8"/>
      </g>
     </g>
     <g id="text_2">
      <!-- 10 -->
      <g transform="translate(136.253525 318.238437) scale(0.1 -0.1)">
       <defs>
        <path id="DejaVuSans-31" d="M 794 531 
L 1825 531 
L 1825 4091 
L 703 3866 
L 703 4441 
L 1819 4666 
L 2450 4666 
L 2450 531 
L 3481 531 
L 3481 0 
L 794 0 
L 794 531 
z
" transform="scale(0.015625)"/>
       </defs>
       <use xlink:href="#DejaVuSans-31"/>
       <use xlink:href="#DejaVuSans-30" transform="translate(63.623047 0)"/>
      </g>
     </g>
    </g>
    <g id="xtick_3">
     <g id="line2d_3">
      <g>
       <use xlink:href="#medf814d9b4" x="198.178867" y="303.64" style="stroke: #000000; stroke-width: 0.8"/>
      </g>
     </g>
     <g id="text_3">
      <!-- 20 -->
      <g transform="translate(191.816367 318.238437) scale(0.1 -0.1)">
       <defs>
        <path id="DejaVuSans-32" d="M 1228 531 
L 3431 531 
L 3431 0 
L 469 0 
L 469 531 
Q 828 903 1448 1529 
Q 2069 2156 2228 2338 
Q 2531 2678 2651 2914 
Q 2772 3150 2772 3378 
Q 2772 3750 2511 3984 
Q 2250 4219 1831 4219 
Q 1534 4219 1204 4116 
Q 875 4013 500 3803 
L 500 4441 
Q 881 4594 1212 4672 
Q 1544 4750 1819 4750 
Q 2544 4750 2975 4387 
Q 3406 4025 3406 3419 
Q 3406 3131 3298 2873 
Q 3191 2616 2906 2266 
Q 2828 2175 2409 1742 
Q 1991 1309 1228 531 
z
" transform="scale(0.015625)"/>
       </defs>
       <use xlink:href="#DejaVuSans-32"/>
       <use xlink:href="#DejaVuSans-30" transform="translate(63.623047 0)"/>
      </g>
     </g>
    </g>
    <g id="xtick_4">
     <g id="line2d_4">
      <g>
       <use xlink:href="#medf814d9b4" x="253.74171" y="303.64" style="stroke: #000000; stroke-width: 0.8"/>
      </g>
     </g>
     <g id="text_4">
      <!-- 30 -->
      <g transform="translate(247.37921 318.238437) scale(0.1 -0.1)">
       <defs>
        <path id="DejaVuSans-33" d="M 2597 2516 
Q 3050 2419 3304 2112 
Q 3559 1806 3559 1356 
Q 3559 666 3084 287 
Q 2609 -91 1734 -91 
Q 1441 -91 1130 -33 
Q 819 25 488 141 
L 488 750 
Q 750 597 1062 519 
Q 1375 441 1716 441 
Q 2309 441 2620 675 
Q 2931 909 2931 1356 
Q 2931 1769 2642 2001 
Q 2353 2234 1838 2234 
L 1294 2234 
L 1294 2753 
L 1863 2753 
Q 2328 2753 2575 2939 
Q 2822 3125 2822 3475 
Q 2822 3834 2567 4026 
Q 2313 4219 1838 4219 
Q 1578 4219 1281 4162 
Q 984 4106 628 3988 
L 628 4550 
Q 988 4650 1302 4700 
Q 1616 4750 1894 4750 
Q 2613 4750 3031 4423 
Q 3450 4097 3450 3541 
Q 3450 3153 3228 2886 
Q 3006 2619 2597 2516 
z
" transform="scale(0.015625)"/>
       </defs>
       <use xlink:href="#DejaVuSans-33"/>
       <use xlink:href="#DejaVuSans-30" transform="translate(63.623047 0)"/>
      </g>
     </g>
    </g>
    <g id="xtick_5">
     <g id="line2d_5">
      <g>
       <use xlink:href="#medf814d9b4" x="309.304553" y="303.64" style="stroke: #000000; stroke-width: 0.8"/>
      </g>
     </g>
     <g id="text_5">
      <!-- 40 -->
      <g transform="translate(302.942053 318.238437) scale(0.1 -0.1)">
       <defs>
        <path id="DejaVuSans-34" d="M 2419 4116 
L 825 1625 
L 2419 1625 
L 2419 4116 
z
M 2253 4666 
L 3047 4666 
L 3047 1625 
L 3713 1625 
L 3713 1100 
L 3047 1100 
L 3047 0 
L 2419 0 
L 2419 1100 
L 313 1100 
L 313 1709 
L 2253 4666 
z
" transform="scale(0.015625)"/>
       </defs>
       <use xlink:href="#DejaVuSans-34"/>
       <use xlink:href="#DejaVuSans-30" transform="translate(63.623047 0)"/>
      </g>
     </g>
    </g>
    <g id="xtick_6">
     <g id="line2d_6">
      <g>
       <use xlink:href="#medf814d9b4" x="364.867395" y="303.64" style="stroke: #000000; stroke-width: 0.8"/>
      </g>
     </g>
     <g id="text_6">
      <!-- 50 -->
      <g transform="translate(358.504895 318.238437) scale(0.1 -0.1)">
       <defs>
        <path id="DejaVuSans-35" d="M 691 4666 
L 3169 4666 
L 3169 4134 
L 1269 4134 
L 1269 2991 
Q 1406 3038 1543 3061 
Q 1681 3084 1819 3084 
Q 2600 3084 3056 2656 
Q 3513 2228 3513 1497 
Q 3513 744 3044 326 
Q 2575 -91 1722 -91 
Q 1428 -91 1123 -41 
Q 819 9 494 109 
L 494 744 
Q 775 591 1075 516 
Q 1375 441 1709 441 
Q 2250 441 2565 725 
Q 2881 1009 2881 1497 
Q 2881 1984 2565 2268 
Q 2250 2553 1709 2553 
Q 1456 2553 1204 2497 
Q 953 2441 691 2322 
L 691 4666 
z
" transform="scale(0.015625)"/>
       </defs>
       <use xlink:href="#DejaVuSans-35"/>
       <use xlink:href="#DejaVuSans-30" transform="translate(63.623047 0)"/>
      </g>
     </g>
    </g>
    <g id="xtick_7">
     <g id="line2d_7">
      <g>
       <use xlink:href="#medf814d9b4" x="420.430238" y="303.64" style="stroke: #000000; stroke-width: 0.8"/>
      </g>
     </g>
     <g id="text_7">
      <!-- 60 -->
      <g transform="translate(414.067738 318.238437) scale(0.1 -0.1)">
       <defs>
        <path id="DejaVuSans-36" d="M 2113 2584 
Q 1688 2584 1439 2293 
Q 1191 2003 1191 1497 
Q 1191 994 1439 701 
Q 1688 409 2113 409 
Q 2538 409 2786 701 
Q 3034 994 3034 1497 
Q 3034 2003 2786 2293 
Q 2538 2584 2113 2584 
z
M 3366 4563 
L 3366 3988 
Q 3128 4100 2886 4159 
Q 2644 4219 2406 4219 
Q 1781 4219 1451 3797 
Q 1122 3375 1075 2522 
Q 1259 2794 1537 2939 
Q 1816 3084 2150 3084 
Q 2853 3084 3261 2657 
Q 3669 2231 3669 1497 
Q 3669 778 3244 343 
Q 2819 -91 2113 -91 
Q 1303 -91 875 529 
Q 447 1150 447 2328 
Q 447 3434 972 4092 
Q 1497 4750 2381 4750 
Q 2619 4750 2861 4703 
Q 3103 4656 3366 4563 
z
" transform="scale(0.015625)"/>
       </defs>
       <use xlink:href="#DejaVuSans-36"/>
       <use xlink:href="#DejaVuSans-30" transform="translate(63.623047 0)"/>
      </g>
     </g>
    </g>
    <g id="text_8">
     <!-- value -->
     <g transform="translate(246.227187 331.916562) scale(0.1 -0.1)">
      <defs>
       <path id="DejaVuSans-76" d="M 191 3500 
L 800 3500 
L 1894 563 
L 2988 3500 
L 3597 3500 
L 2284 0 
L 1503 0 
L 191 3500 
z
" transform="scale(0.015625)"/>
       <path id="DejaVuSans-61" d="M 2194 1759 
Q 1497 1759 1228 1600 
Q 959 1441 959 1056 
Q 959 750 1161 570 
Q 1363 391 1709 391 
Q 2188 391 2477 730 
Q 2766 1069 2766 1631 
L 2766 1759 
L 2194 1759 
z
M 3341 1997 
L 3341 0 
L 2766 0 
L 2766 531 
Q 2569 213 2275 61 
Q 1981 -91 1556 -91 
Q 1019 -91 701 211 
Q 384 513 384 1019 
Q 384 1609 779 1909 
Q 1175 2209 1959 2209 
L 2766 2209 
L 2766 2266 
Q 2766 2663 2505 2880 
Q 2244 3097 1772 3097 
Q 1472 3097 1187 3025 
Q 903 2953 641 2809 
L 641 3341 
Q 956 3463 1253 3523 
Q 1550 3584 1831 3584 
Q 2591 3584 2966 3190 
Q 3341 2797 3341 1997 
z
" transform="scale(0.015625)"/>
       <path id="DejaVuSans-6c" d="M 603 4863 
L 1178 4863 
L 1178 0 
L 603 0 
L 603 4863 
z
" transform="scale(0.015625)"/>
       <path id="DejaVuSans-75" d="M 544 1381 
L 544 3500 
L 1119 3500 
L 1119 1403 
Q 1119 906 1312 657 
Q 1506 409 1894 409 
Q 2359 409 2629 706 
Q 2900 1003 2900 1516 
L 2900 3500 
L 3475 3500 
L 3475 0 
L 2900 0 
L 2900 538 
Q 2691 219 2414 64 
Q 2138 -91 1772 -91 
Q 1169 -91 856 284 
Q 544 659 544 1381 
z
M 1991 3584 
L 1991 3584 
z
" transform="scale(0.015625)"/>
       <path id="DejaVuSans-65" d="M 3597 1894 
L 3597 1613 
L 953 1613 
Q 991 1019 1311 708 
Q 1631 397 2203 397 
Q 2534 397 2845 478 
Q 3156 559 3463 722 
L 3463 178 
Q 3153 47 2828 -22 
Q 2503 -91 2169 -91 
Q 1331 -91 842 396 
Q 353 884 353 1716 
Q 353 2575 817 3079 
Q 1281 3584 2069 3584 
Q 2775 3584 3186 3129 
Q 3597 2675 3597 1894 
z
M 3022 2063 
Q 3016 2534 2758 2815 
Q 2500 3097 2075 3097 
Q 1594 3097 1305 2825 
Q 1016 2553 972 2059 
L 3022 2063 
z
" transform="scale(0.015625)"/>
      </defs>
      <use xlink:href="#DejaVuSans-76"/>
      <use xlink:href="#DejaVuSans-61" transform="translate(59.179688 0)"/>
      <use xlink:href="#DejaVuSans-6c" transform="translate(120.458984 0)"/>
      <use xlink:href="#DejaVuSans-75" transform="translate(148.242188 0)"/>
      <use xlink:href="#DejaVuSans-65" transform="translate(211.621094 0)"/>
     </g>
    </g>
   </g>
   <g id="matplotlib.axis_2">
    <g id="ytick_1">
     <g id="line2d_8">
      <defs>
       <path id="ma77522cd94" d="M 0 0 
L -3.5 0 
" style="stroke: #000000; stroke-width: 0.8"/>
      </defs>
      <g>
       <use xlink:href="#ma77522cd94" x="69.77" y="303.64" style="stroke: #000000; stroke-width: 0.8"/>
      </g>
     </g>
     <g id="text_9">
      <!-- 0 -->
      <g transform="translate(56.4075 307.439219) scale(0.1 -0.1)">
       <use xlink:href="#DejaVuSans-30"/>
      </g>
     </g>
    </g>
    <g id="ytick_2">
     <g id="line2d_9">
      <g>
       <use xlink:href="#ma77522cd94" x="69.77" y="269.351232" style="stroke: #000000; stroke-width: 0.8"/>
      </g>
     </g>
     <g id="text_10">
      <!-- 25000 -->
      <g transform="translate(30.9575 273.150451) scale(0.1 -0.1)">
       <use xlink:href="#DejaVuSans-32"/>
       <use xlink:href="#DejaVuSans-35" transform="translate(63.623047 0)"/>
       <use xlink:href="#DejaVuSans-30" transform="translate(127.246094 0)"/>
       <use xlink:href="#DejaVuSans-30" transform="translate(190.869141 0)"/>
       <use xlink:href="#DejaVuSans-30" transform="translate(254.492188 0)"/>
      </g>
     </g>
    </g>
    <g id="ytick_3">
     <g id="line2d_10">
      <g>
       <use xlink:href="#ma77522cd94" x="69.77" y="235.062464" style="stroke: #000000; stroke-width: 0.8"/>
      </g>
     </g>
     <g id="text_11">
      <!-- 50000 -->
      <g transform="translate(30.9575 238.861683) scale(0.1 -0.1)">
       <use xlink:href="#DejaVuSans-35"/>
       <use xlink:href="#DejaVuSans-30" transform="translate(63.623047 0)"/>
       <use xlink:href="#DejaVuSans-30" transform="translate(127.246094 0)"/>
       <use xlink:href="#DejaVuSans-30" transform="translate(190.869141 0)"/>
       <use xlink:href="#DejaVuSans-30" transform="translate(254.492188 0)"/>
      </g>
     </g>
    </g>
    <g id="ytick_4">
     <g id="line2d_11">
      <g>
       <use xlink:href="#ma77522cd94" x="69.77" y="200.773696" style="stroke: #000000; stroke-width: 0.8"/>
      </g>
     </g>
     <g id="text_12">
      <!-- 75000 -->
      <g transform="translate(30.9575 204.572915) scale(0.1 -0.1)">
       <defs>
        <path id="DejaVuSans-37" d="M 525 4666 
L 3525 4666 
L 3525 4397 
L 1831 0 
L 1172 0 
L 2766 4134 
L 525 4134 
L 525 4666 
z
" transform="scale(0.015625)"/>
       </defs>
       <use xlink:href="#DejaVuSans-37"/>
       <use xlink:href="#DejaVuSans-35" transform="translate(63.623047 0)"/>
       <use xlink:href="#DejaVuSans-30" transform="translate(127.246094 0)"/>
       <use xlink:href="#DejaVuSans-30" transform="translate(190.869141 0)"/>
       <use xlink:href="#DejaVuSans-30" transform="translate(254.492188 0)"/>
      </g>
     </g>
    </g>
    <g id="ytick_5">
     <g id="line2d_12">
      <g>
       <use xlink:href="#ma77522cd94" x="69.77" y="166.484928" style="stroke: #000000; stroke-width: 0.8"/>
      </g>
     </g>
     <g id="text_13">
      <!-- 100000 -->
      <g transform="translate(24.595 170.284147) scale(0.1 -0.1)">
       <use xlink:href="#DejaVuSans-31"/>
       <use xlink:href="#DejaVuSans-30" transform="translate(63.623047 0)"/>
       <use xlink:href="#DejaVuSans-30" transform="translate(127.246094 0)"/>
       <use xlink:href="#DejaVuSans-30" transform="translate(190.869141 0)"/>
       <use xlink:href="#DejaVuSans-30" transform="translate(254.492188 0)"/>
       <use xlink:href="#DejaVuSans-30" transform="translate(318.115234 0)"/>
      </g>
     </g>
    </g>
    <g id="ytick_6">
     <g id="line2d_13">
      <g>
       <use xlink:href="#ma77522cd94" x="69.77" y="132.19616" style="stroke: #000000; stroke-width: 0.8"/>
      </g>
     </g>
     <g id="text_14">
      <!-- 125000 -->
      <g transform="translate(24.595 135.995379) scale(0.1 -0.1)">
       <use xlink:href="#DejaVuSans-31"/>
       <use xlink:href="#DejaVuSans-32" transform="translate(63.623047 0)"/>
       <use xlink:href="#DejaVuSans-35" transform="translate(127.246094 0)"/>
       <use xlink:href="#DejaVuSans-30" transform="translate(190.869141 0)"/>
       <use xlink:href="#DejaVuSans-30" transform="translate(254.492188 0)"/>
       <use xlink:href="#DejaVuSans-30" transform="translate(318.115234 0)"/>
      </g>
     </g>
    </g>
    <g id="ytick_7">
     <g id="line2d_14">
      <g>
       <use xlink:href="#ma77522cd94" x="69.77" y="97.907392" style="stroke: #000000; stroke-width: 0.8"/>
      </g>
     </g>
     <g id="text_15">
      <!-- 150000 -->
      <g transform="translate(24.595 101.706611) scale(0.1 -0.1)">
       <use xlink:href="#DejaVuSans-31"/>
       <use xlink:href="#DejaVuSans-35" transform="translate(63.623047 0)"/>
       <use xlink:href="#DejaVuSans-30" transform="translate(127.246094 0)"/>
       <use xlink:href="#DejaVuSans-30" transform="translate(190.869141 0)"/>
       <use xlink:href="#DejaVuSans-30" transform="translate(254.492188 0)"/>
       <use xlink:href="#DejaVuSans-30" transform="translate(318.115234 0)"/>
      </g>
     </g>
    </g>
    <g id="ytick_8">
     <g id="line2d_15">
      <g>
       <use xlink:href="#ma77522cd94" x="69.77" y="63.618624" style="stroke: #000000; stroke-width: 0.8"/>
      </g>
     </g>
     <g id="text_16">
      <!-- 175000 -->
      <g transform="translate(24.595 67.417843) scale(0.1 -0.1)">
       <use xlink:href="#DejaVuSans-31"/>
       <use xlink:href="#DejaVuSans-37" transform="translate(63.623047 0)"/>
       <use xlink:href="#DejaVuSans-35" transform="translate(127.246094 0)"/>
       <use xlink:href="#DejaVuSans-30" transform="translate(190.869141 0)"/>
       <use xlink:href="#DejaVuSans-30" transform="translate(254.492188 0)"/>
       <use xlink:href="#DejaVuSans-30" transform="translate(318.115234 0)"/>
      </g>
     </g>
    </g>
    <g id="ytick_9">
     <g id="line2d_16">
      <g>
       <use xlink:href="#ma77522cd94" x="69.77" y="29.329856" style="stroke: #000000; stroke-width: 0.8"/>
      </g>
     </g>
     <g id="text_17">
      <!-- 200000 -->
      <g transform="translate(24.595 33.129075) scale(0.1 -0.1)">
       <use xlink:href="#DejaVuSans-32"/>
       <use xlink:href="#DejaVuSans-30" transform="translate(63.623047 0)"/>
       <use xlink:href="#DejaVuSans-30" transform="translate(127.246094 0)"/>
       <use xlink:href="#DejaVuSans-30" transform="translate(190.869141 0)"/>
       <use xlink:href="#DejaVuSans-30" transform="translate(254.492188 0)"/>
       <use xlink:href="#DejaVuSans-30" transform="translate(318.115234 0)"/>
      </g>
     </g>
    </g>
    <g id="text_18">
     <!-- Count -->
     <g transform="translate(18.515313 172.068437) rotate(-90) scale(0.1 -0.1)">
      <defs>
       <path id="DejaVuSans-43" d="M 4122 4306 
L 4122 3641 
Q 3803 3938 3442 4084 
Q 3081 4231 2675 4231 
Q 1875 4231 1450 3742 
Q 1025 3253 1025 2328 
Q 1025 1406 1450 917 
Q 1875 428 2675 428 
Q 3081 428 3442 575 
Q 3803 722 4122 1019 
L 4122 359 
Q 3791 134 3420 21 
Q 3050 -91 2638 -91 
Q 1578 -91 968 557 
Q 359 1206 359 2328 
Q 359 3453 968 4101 
Q 1578 4750 2638 4750 
Q 3056 4750 3426 4639 
Q 3797 4528 4122 4306 
z
" transform="scale(0.015625)"/>
       <path id="DejaVuSans-6f" d="M 1959 3097 
Q 1497 3097 1228 2736 
Q 959 2375 959 1747 
Q 959 1119 1226 758 
Q 1494 397 1959 397 
Q 2419 397 2687 759 
Q 2956 1122 2956 1747 
Q 2956 2369 2687 2733 
Q 2419 3097 1959 3097 
z
M 1959 3584 
Q 2709 3584 3137 3096 
Q 3566 2609 3566 1747 
Q 3566 888 3137 398 
Q 2709 -91 1959 -91 
Q 1206 -91 779 398 
Q 353 888 353 1747 
Q 353 2609 779 3096 
Q 1206 3584 1959 3584 
z
" transform="scale(0.015625)"/>
       <path id="DejaVuSans-6e" d="M 3513 2113 
L 3513 0 
L 2938 0 
L 2938 2094 
Q 2938 2591 2744 2837 
Q 2550 3084 2163 3084 
Q 1697 3084 1428 2787 
Q 1159 2491 1159 1978 
L 1159 0 
L 581 0 
L 581 3500 
L 1159 3500 
L 1159 2956 
Q 1366 3272 1645 3428 
Q 1925 3584 2291 3584 
Q 2894 3584 3203 3211 
Q 3513 2838 3513 2113 
z
" transform="scale(0.015625)"/>
       <path id="DejaVuSans-74" d="M 1172 4494 
L 1172 3500 
L 2356 3500 
L 2356 3053 
L 1172 3053 
L 1172 1153 
Q 1172 725 1289 603 
Q 1406 481 1766 481 
L 2356 481 
L 2356 0 
L 1766 0 
Q 1100 0 847 248 
Q 594 497 594 1153 
L 594 3053 
L 172 3053 
L 172 3500 
L 594 3500 
L 594 4494 
L 1172 4494 
z
" transform="scale(0.015625)"/>
      </defs>
      <use xlink:href="#DejaVuSans-43"/>
      <use xlink:href="#DejaVuSans-6f" transform="translate(69.824219 0)"/>
      <use xlink:href="#DejaVuSans-75" transform="translate(131.005859 0)"/>
      <use xlink:href="#DejaVuSans-6e" transform="translate(194.384766 0)"/>
      <use xlink:href="#DejaVuSans-74" transform="translate(257.763672 0)"/>
     </g>
    </g>
   </g>
   <g id="line2d_17">
    <path d="M 331.52969 303.64 
L 331.52969 10.8 
" clip-path="url(#p52f9ba61de)" style="fill: none; stroke: #1f77b4; stroke-width: 1.5; stroke-linecap: square"/>
   </g>
   <g id="patch_110">
    <path d="M 69.77 303.64 
L 69.77 10.8 
" style="fill: none; stroke: #000000; stroke-width: 0.8; stroke-linejoin: miter; stroke-linecap: square"/>
   </g>
   <g id="patch_111">
    <path d="M 450 303.64 
L 450 10.8 
" style="fill: none; stroke: #000000; stroke-width: 0.8; stroke-linejoin: miter; stroke-linecap: square"/>
   </g>
   <g id="patch_112">
    <path d="M 69.77 303.64 
L 450 303.64 
" style="fill: none; stroke: #000000; stroke-width: 0.8; stroke-linejoin: miter; stroke-linecap: square"/>
   </g>
   <g id="patch_113">
    <path d="M 69.77 10.8 
L 450 10.8 
" style="fill: none; stroke: #000000; stroke-width: 0.8; stroke-linejoin: miter; stroke-linecap: square"/>
   </g>
  </g>
 </g>
 <defs>
  <clipPath id="p52f9ba61de">
   <rect x="69.77" y="10.8" width="380.23" height="292.84"/>
  </clipPath>
 </defs>
</svg>
