<?xml version="1.0" encoding="utf-8"?>
<svg xmlns="http://www.w3.org/2000/svg" xmlns:xlink="http://www.w3.org/1999/xlink" width="600" height="300" viewBox="0 0 2400 1200">
<defs>
  <clipPath id="clip620">
    <rect x="0" y="0" width="2400" height="1200"/>
  </clipPath>
</defs>
<path clip-path="url(#clip620)" d="
M0 1200 L2400 1200 L2400 0 L0 0  Z
  " fill="#ffffff" fill-rule="evenodd" fill-opacity="1"/>
<defs>
  <clipPath id="clip621">
    <rect x="480" y="0" width="1681" height="1200"/>
  </clipPath>
</defs>
<path clip-path="url(#clip620)" d="
M47.2441 1099.09 L2352.76 1099.09 L2352.76 47.2441 L47.2441 47.2441  Z
  " fill="#ffffff" fill-rule="evenodd" fill-opacity="1"/>
<defs>
  <clipPath id="clip622">
    <rect x="47" y="47" width="2307" height="1053"/>
  </clipPath>
</defs>
<polyline clip-path="url(#clip620)" style="stroke:#000000; stroke-linecap:butt; stroke-linejoin:round; stroke-width:4; stroke-opacity:1; fill:none" points="
  47.2441,1099.09 2352.76,1099.09 
  "/>
<polyline clip-path="url(#clip620)" style="stroke:#000000; stroke-linecap:butt; stroke-linejoin:round; stroke-width:4; stroke-opacity:1; fill:none" points="
  254.474,1099.09 254.474,1080.19 
  "/>
<polyline clip-path="url(#clip620)" style="stroke:#000000; stroke-linecap:butt; stroke-linejoin:round; stroke-width:4; stroke-opacity:1; fill:none" points="
  569.649,1099.09 569.649,1080.19 
  "/>
<polyline clip-path="url(#clip620)" style="stroke:#000000; stroke-linecap:butt; stroke-linejoin:round; stroke-width:4; stroke-opacity:1; fill:none" points="
  884.825,1099.09 884.825,1080.19 
  "/>
<polyline clip-path="url(#clip620)" style="stroke:#000000; stroke-linecap:butt; stroke-linejoin:round; stroke-width:4; stroke-opacity:1; fill:none" points="
  1200,1099.09 1200,1080.19 
  "/>
<polyline clip-path="url(#clip620)" style="stroke:#000000; stroke-linecap:butt; stroke-linejoin:round; stroke-width:4; stroke-opacity:1; fill:none" points="
  1515.18,1099.09 1515.18,1080.19 
  "/>
<polyline clip-path="url(#clip620)" style="stroke:#000000; stroke-linecap:butt; stroke-linejoin:round; stroke-width:4; stroke-opacity:1; fill:none" points="
  1830.35,1099.09 1830.35,1080.19 
  "/>
<polyline clip-path="url(#clip620)" style="stroke:#000000; stroke-linecap:butt; stroke-linejoin:round; stroke-width:4; stroke-opacity:1; fill:none" points="
  2145.53,1099.09 2145.53,1080.19 
  "/>
<path clip-path="url(#clip620)" d="M201.5 1144.66 L231.175 1144.66 L231.175 1148.59 L201.5 1148.59 L201.5 1144.66 Z" fill="#000000" fill-rule="evenodd" fill-opacity="1" /><path clip-path="url(#clip620)" d="M240.087 1126.93 L262.31 1126.93 L262.31 1128.92 L249.763 1161.49 L244.879 1161.49 L256.685 1130.86 L240.087 1130.86 L240.087 1126.93 Z" fill="#000000" fill-rule="evenodd" fill-opacity="1" /><path clip-path="url(#clip620)" d="M271.43 1155.61 L276.314 1155.61 L276.314 1161.49 L271.43 1161.49 L271.43 1155.61 Z" fill="#000000" fill-rule="evenodd" fill-opacity="1" /><path clip-path="url(#clip620)" d="M286.546 1126.93 L304.902 1126.93 L304.902 1130.86 L290.828 1130.86 L290.828 1139.34 Q291.846 1138.99 292.865 1138.83 Q293.883 1138.64 294.902 1138.64 Q300.689 1138.64 304.069 1141.81 Q307.448 1144.98 307.448 1150.4 Q307.448 1155.98 303.976 1159.08 Q300.504 1162.16 294.184 1162.16 Q292.008 1162.16 289.74 1161.79 Q287.495 1161.42 285.087 1160.68 L285.087 1155.98 Q287.171 1157.11 289.393 1157.67 Q291.615 1158.22 294.092 1158.22 Q298.096 1158.22 300.434 1156.12 Q302.772 1154.01 302.772 1150.4 Q302.772 1146.79 300.434 1144.68 Q298.096 1142.58 294.092 1142.58 Q292.217 1142.58 290.342 1142.99 Q288.49 1143.41 286.546 1144.29 L286.546 1126.93 Z" fill="#000000" fill-rule="evenodd" fill-opacity="1" /><path clip-path="url(#clip620)" d="M516.177 1144.66 L545.853 1144.66 L545.853 1148.59 L516.177 1148.59 L516.177 1144.66 Z" fill="#000000" fill-rule="evenodd" fill-opacity="1" /><path clip-path="url(#clip620)" d="M555.992 1126.93 L574.348 1126.93 L574.348 1130.86 L560.274 1130.86 L560.274 1139.34 Q561.293 1138.99 562.311 1138.83 Q563.33 1138.64 564.348 1138.64 Q570.135 1138.64 573.515 1141.81 Q576.895 1144.98 576.895 1150.4 Q576.895 1155.98 573.422 1159.08 Q569.95 1162.16 563.631 1162.16 Q561.455 1162.16 559.186 1161.79 Q556.941 1161.42 554.534 1160.68 L554.534 1155.98 Q556.617 1157.11 558.839 1157.67 Q561.061 1158.22 563.538 1158.22 Q567.543 1158.22 569.881 1156.12 Q572.219 1154.01 572.219 1150.4 Q572.219 1146.79 569.881 1144.68 Q567.543 1142.58 563.538 1142.58 Q561.663 1142.58 559.788 1142.99 Q557.936 1143.41 555.992 1144.29 L555.992 1126.93 Z" fill="#000000" fill-rule="evenodd" fill-opacity="1" /><path clip-path="url(#clip620)" d="M586.108 1155.61 L590.992 1155.61 L590.992 1161.49 L586.108 1161.49 L586.108 1155.61 Z" fill="#000000" fill-rule="evenodd" fill-opacity="1" /><path clip-path="url(#clip620)" d="M611.177 1130.01 Q607.566 1130.01 605.737 1133.57 Q603.932 1137.11 603.932 1144.24 Q603.932 1151.35 605.737 1154.91 Q607.566 1158.46 611.177 1158.46 Q614.811 1158.46 616.617 1154.91 Q618.445 1151.35 618.445 1144.24 Q618.445 1137.11 616.617 1133.57 Q614.811 1130.01 611.177 1130.01 M611.177 1126.3 Q616.987 1126.3 620.043 1130.91 Q623.121 1135.49 623.121 1144.24 Q623.121 1152.97 620.043 1157.58 Q616.987 1162.16 611.177 1162.16 Q605.367 1162.16 602.288 1157.58 Q599.232 1152.97 599.232 1144.24 Q599.232 1135.49 602.288 1130.91 Q605.367 1126.3 611.177 1126.3 Z" fill="#000000" fill-rule="evenodd" fill-opacity="1" /><path clip-path="url(#clip620)" d="M831.85 1144.66 L861.526 1144.66 L861.526 1148.59 L831.85 1148.59 L831.85 1144.66 Z" fill="#000000" fill-rule="evenodd" fill-opacity="1" /><path clip-path="url(#clip620)" d="M875.646 1157.55 L891.966 1157.55 L891.966 1161.49 L870.021 1161.49 L870.021 1157.55 Q872.684 1154.8 877.267 1150.17 Q881.873 1145.52 883.054 1144.17 Q885.299 1141.65 886.179 1139.91 Q887.082 1138.15 887.082 1136.46 Q887.082 1133.71 885.137 1131.97 Q883.216 1130.24 880.114 1130.24 Q877.915 1130.24 875.461 1131 Q873.031 1131.77 870.253 1133.32 L870.253 1128.59 Q873.077 1127.46 875.531 1126.88 Q877.984 1126.3 880.021 1126.3 Q885.392 1126.3 888.586 1128.99 Q891.781 1131.67 891.781 1136.16 Q891.781 1138.29 890.97 1140.21 Q890.183 1142.11 888.077 1144.71 Q887.498 1145.38 884.396 1148.59 Q881.295 1151.79 875.646 1157.55 Z" fill="#000000" fill-rule="evenodd" fill-opacity="1" /><path clip-path="url(#clip620)" d="M901.781 1155.61 L906.665 1155.61 L906.665 1161.49 L901.781 1161.49 L901.781 1155.61 Z" fill="#000000" fill-rule="evenodd" fill-opacity="1" /><path clip-path="url(#clip620)" d="M916.896 1126.93 L935.253 1126.93 L935.253 1130.86 L921.179 1130.86 L921.179 1139.34 Q922.197 1138.99 923.216 1138.83 Q924.234 1138.64 925.253 1138.64 Q931.04 1138.64 934.419 1141.81 Q937.799 1144.98 937.799 1150.4 Q937.799 1155.98 934.327 1159.08 Q930.854 1162.16 924.535 1162.16 Q922.359 1162.16 920.091 1161.79 Q917.845 1161.42 915.438 1160.68 L915.438 1155.98 Q917.521 1157.11 919.743 1157.67 Q921.966 1158.22 924.442 1158.22 Q928.447 1158.22 930.785 1156.12 Q933.123 1154.01 933.123 1150.4 Q933.123 1146.79 930.785 1144.68 Q928.447 1142.58 924.442 1142.58 Q922.567 1142.58 920.693 1142.99 Q918.841 1143.41 916.896 1144.29 L916.896 1126.93 Z" fill="#000000" fill-rule="evenodd" fill-opacity="1" /><path clip-path="url(#clip620)" d="M1177.38 1130.01 Q1173.77 1130.01 1171.94 1133.57 Q1170.14 1137.11 1170.14 1144.24 Q1170.14 1151.35 1171.94 1154.91 Q1173.77 1158.46 1177.38 1158.46 Q1181.02 1158.46 1182.82 1154.91 Q1184.65 1151.35 1184.65 1144.24 Q1184.65 1137.11 1182.82 1133.57 Q1181.02 1130.01 1177.38 1130.01 M1177.38 1126.3 Q1183.19 1126.3 1186.25 1130.91 Q1189.33 1135.49 1189.33 1144.24 Q1189.33 1152.97 1186.25 1157.58 Q1183.19 1162.16 1177.38 1162.16 Q1171.57 1162.16 1168.5 1157.58 Q1165.44 1152.97 1165.44 1144.24 Q1165.44 1135.49 1168.5 1130.91 Q1171.57 1126.3 1177.38 1126.3 Z" fill="#000000" fill-rule="evenodd" fill-opacity="1" /><path clip-path="url(#clip620)" d="M1197.55 1155.61 L1202.43 1155.61 L1202.43 1161.49 L1197.55 1161.49 L1197.55 1155.61 Z" fill="#000000" fill-rule="evenodd" fill-opacity="1" /><path clip-path="url(#clip620)" d="M1222.62 1130.01 Q1219 1130.01 1217.18 1133.57 Q1215.37 1137.11 1215.37 1144.24 Q1215.37 1151.35 1217.18 1154.91 Q1219 1158.46 1222.62 1158.46 Q1226.25 1158.46 1228.06 1154.91 Q1229.88 1151.35 1229.88 1144.24 Q1229.88 1137.11 1228.06 1133.57 Q1226.25 1130.01 1222.62 1130.01 M1222.62 1126.3 Q1228.43 1126.3 1231.48 1130.91 Q1234.56 1135.49 1234.56 1144.24 Q1234.56 1152.97 1231.48 1157.58 Q1228.43 1162.16 1222.62 1162.16 Q1216.81 1162.16 1213.73 1157.58 Q1210.67 1152.97 1210.67 1144.24 Q1210.67 1135.49 1213.73 1130.91 Q1216.81 1126.3 1222.62 1126.3 Z" fill="#000000" fill-rule="evenodd" fill-opacity="1" /><path clip-path="url(#clip620)" d="M1486.91 1157.55 L1503.23 1157.55 L1503.23 1161.49 L1481.29 1161.49 L1481.29 1157.55 Q1483.95 1154.8 1488.53 1150.17 Q1493.14 1145.52 1494.32 1144.17 Q1496.56 1141.65 1497.44 1139.91 Q1498.35 1138.15 1498.35 1136.46 Q1498.35 1133.71 1496.4 1131.97 Q1494.48 1130.24 1491.38 1130.24 Q1489.18 1130.24 1486.73 1131 Q1484.3 1131.77 1481.52 1133.32 L1481.52 1128.59 Q1484.34 1127.46 1486.8 1126.88 Q1489.25 1126.3 1491.29 1126.3 Q1496.66 1126.3 1499.85 1128.99 Q1503.05 1131.67 1503.05 1136.16 Q1503.05 1138.29 1502.24 1140.21 Q1501.45 1142.11 1499.34 1144.71 Q1498.76 1145.38 1495.66 1148.59 Q1492.56 1151.79 1486.91 1157.55 Z" fill="#000000" fill-rule="evenodd" fill-opacity="1" /><path clip-path="url(#clip620)" d="M1513.05 1155.61 L1517.93 1155.61 L1517.93 1161.49 L1513.05 1161.49 L1513.05 1155.61 Z" fill="#000000" fill-rule="evenodd" fill-opacity="1" /><path clip-path="url(#clip620)" d="M1528.16 1126.93 L1546.52 1126.93 L1546.52 1130.86 L1532.44 1130.86 L1532.44 1139.34 Q1533.46 1138.99 1534.48 1138.83 Q1535.5 1138.64 1536.52 1138.64 Q1542.3 1138.64 1545.68 1141.81 Q1549.06 1144.98 1549.06 1150.4 Q1549.06 1155.98 1545.59 1159.08 Q1542.12 1162.16 1535.8 1162.16 Q1533.62 1162.16 1531.36 1161.79 Q1529.11 1161.42 1526.7 1160.68 L1526.7 1155.98 Q1528.79 1157.11 1531.01 1157.67 Q1533.23 1158.22 1535.71 1158.22 Q1539.71 1158.22 1542.05 1156.12 Q1544.39 1154.01 1544.39 1150.4 Q1544.39 1146.79 1542.05 1144.68 Q1539.71 1142.58 1535.71 1142.58 Q1533.83 1142.58 1531.96 1142.99 Q1530.11 1143.41 1528.16 1144.29 L1528.16 1126.93 Z" fill="#000000" fill-rule="evenodd" fill-opacity="1" /><path clip-path="url(#clip620)" d="M1797.52 1126.93 L1815.87 1126.93 L1815.87 1130.86 L1801.8 1130.86 L1801.8 1139.34 Q1802.82 1138.99 1803.83 1138.83 Q1804.85 1138.64 1805.87 1138.64 Q1811.66 1138.64 1815.04 1141.81 Q1818.42 1144.98 1818.42 1150.4 Q1818.42 1155.98 1814.95 1159.08 Q1811.47 1162.16 1805.15 1162.16 Q1802.98 1162.16 1800.71 1161.79 Q1798.46 1161.42 1796.06 1160.68 L1796.06 1155.98 Q1798.14 1157.11 1800.36 1157.67 Q1802.58 1158.22 1805.06 1158.22 Q1809.07 1158.22 1811.4 1156.12 Q1813.74 1154.01 1813.74 1150.4 Q1813.74 1146.79 1811.4 1144.68 Q1809.07 1142.58 1805.06 1142.58 Q1803.19 1142.58 1801.31 1142.99 Q1799.46 1143.41 1797.52 1144.29 L1797.52 1126.93 Z" fill="#000000" fill-rule="evenodd" fill-opacity="1" /><path clip-path="url(#clip620)" d="M1827.63 1155.61 L1832.52 1155.61 L1832.52 1161.49 L1827.63 1161.49 L1827.63 1155.61 Z" fill="#000000" fill-rule="evenodd" fill-opacity="1" /><path clip-path="url(#clip620)" d="M1852.7 1130.01 Q1849.09 1130.01 1847.26 1133.57 Q1845.45 1137.11 1845.45 1144.24 Q1845.45 1151.35 1847.26 1154.91 Q1849.09 1158.46 1852.7 1158.46 Q1856.33 1158.46 1858.14 1154.91 Q1859.97 1151.35 1859.97 1144.24 Q1859.97 1137.11 1858.14 1133.57 Q1856.33 1130.01 1852.7 1130.01 M1852.7 1126.3 Q1858.51 1126.3 1861.57 1130.91 Q1864.64 1135.49 1864.64 1144.24 Q1864.64 1152.97 1861.57 1157.58 Q1858.51 1162.16 1852.7 1162.16 Q1846.89 1162.16 1843.81 1157.58 Q1840.76 1152.97 1840.76 1144.24 Q1840.76 1135.49 1843.81 1130.91 Q1846.89 1126.3 1852.7 1126.3 Z" fill="#000000" fill-rule="evenodd" fill-opacity="1" /><path clip-path="url(#clip620)" d="M2111.85 1126.93 L2134.07 1126.93 L2134.07 1128.92 L2121.52 1161.49 L2116.64 1161.49 L2128.44 1130.86 L2111.85 1130.86 L2111.85 1126.93 Z" fill="#000000" fill-rule="evenodd" fill-opacity="1" /><path clip-path="url(#clip620)" d="M2143.19 1155.61 L2148.07 1155.61 L2148.07 1161.49 L2143.19 1161.49 L2143.19 1155.61 Z" fill="#000000" fill-rule="evenodd" fill-opacity="1" /><path clip-path="url(#clip620)" d="M2158.3 1126.93 L2176.66 1126.93 L2176.66 1130.86 L2162.59 1130.86 L2162.59 1139.34 Q2163.6 1138.99 2164.62 1138.83 Q2165.64 1138.64 2166.66 1138.64 Q2172.45 1138.64 2175.83 1141.81 Q2179.21 1144.98 2179.21 1150.4 Q2179.21 1155.98 2175.73 1159.08 Q2172.26 1162.16 2165.94 1162.16 Q2163.77 1162.16 2161.5 1161.79 Q2159.25 1161.42 2156.85 1160.68 L2156.85 1155.98 Q2158.93 1157.11 2161.15 1157.67 Q2163.37 1158.22 2165.85 1158.22 Q2169.85 1158.22 2172.19 1156.12 Q2174.53 1154.01 2174.53 1150.4 Q2174.53 1146.79 2172.19 1144.68 Q2169.85 1142.58 2165.85 1142.58 Q2163.98 1142.58 2162.1 1142.99 Q2160.25 1143.41 2158.3 1144.29 L2158.3 1126.93 Z" fill="#000000" fill-rule="evenodd" fill-opacity="1" /><polyline clip-path="url(#clip622)" style="stroke:#009af9; stroke-linecap:butt; stroke-linejoin:round; stroke-width:8; stroke-opacity:1; fill:none" points="
  947.513,1068.56 949.157,1068.47 950.8,1068.37 966,1066.93 981.2,1064.03 990.334,1061.12 999.468,1056.89 1007.19,1051.95 1014.91,1045.4 1019.11,1041.02 
  1023.3,1035.98 1027.5,1030.2 1031.69,1023.6 1035.56,1016.72 1039.43,1009 1043.29,1000.38 1047.16,990.793 1051.31,979.354 1055.45,966.639 1059.6,952.569 
  1063.74,937.069 1068.55,917.238 1073.35,895.313 1078.16,871.226 1082.96,844.937 1087.23,819.716 1091.5,792.759 1095.76,764.103 1100.03,733.811 1103.78,705.969 
  1107.52,677.014 1111.26,647.04 1115.01,616.157 1123.17,546.306 1131.33,474.361 1139.54,401.813 1147.75,331.301 1150.02,312.486 1152.29,294.058 1154.56,276.069 
  1156.83,258.569 1159.1,241.609 1161.37,225.238 1163.64,209.506 1165.91,194.458 1168.07,180.82 1170.23,167.881 1172.39,155.679 1174.55,144.248 1176.71,133.622 
  1178.87,123.831 1181.03,114.903 1183.19,106.867 1185.43,99.4795 1187.68,93.1044 1189.92,87.7618 1192.17,83.4691 1194.41,80.2404 1196.66,78.0861 1198.9,77.0133 
  1201.15,77.0255 1203.04,77.877 1204.93,79.4954 1206.82,81.8769 1208.71,85.0161 1210.6,88.9057 1212.49,93.5366 1214.38,98.8983 1216.27,104.978 1218.58,113.355 
  1220.88,122.754 1223.19,133.142 1225.5,144.486 1227.81,156.747 1230.11,169.886 1232.42,183.86 1234.73,198.623 1238.96,227.564 1243.18,258.693 1245.3,274.979 
  1247.41,291.693 1249.53,308.793 1251.64,326.239 1259.45,393 1267.26,461.859 1275.17,531.772 1283.08,600.06 1287.51,637.035 1291.95,672.794 1296.38,707.144 
  1300.81,739.929 1304.83,768.18 1308.84,794.972 1312.86,820.257 1316.88,844.004 1321.48,869.291 1326.08,892.557 1330.67,913.836 1335.27,933.184 1339.53,949.44 
  1343.79,964.174 1348.05,977.463 1352.31,989.393 1356.5,999.909 1360.7,1009.28 1364.9,1017.58 1369.1,1024.91 1373.18,1031.18 1377.25,1036.69 1381.33,1041.51 
  1385.4,1045.7 1393.76,1052.64 1402.12,1057.74 1411.27,1061.71 1420.43,1064.45 1433.73,1066.9 1447.03,1068.22 1449.76,1068.4 1452.49,1068.56 
  "/>
<polyline clip-path="url(#clip622)" style="stroke:#e26f46; stroke-linecap:butt; stroke-linejoin:round; stroke-width:8; stroke-opacity:1; fill:none" points="
  112.494,1069.32 119.575,1069.3 126.655,1069.27 192.122,1068.94 257.589,1068.27 296.932,1067.59 336.275,1066.61 369.539,1065.46 402.803,1063.94 420.871,1062.92 
  438.938,1061.75 457.005,1060.41 475.072,1058.88 491.728,1057.28 508.384,1055.49 525.04,1053.49 541.696,1051.26 559.554,1048.61 577.411,1045.66 595.268,1042.39 
  613.125,1038.79 633.815,1034.19 654.504,1029.1 675.193,1023.5 695.883,1017.4 714.269,1011.54 732.655,1005.29 751.041,998.632 769.428,991.599 785.551,985.135 
  801.674,978.413 817.797,971.453 833.92,964.283 869.077,948.066 904.234,931.362 939.6,914.519 974.966,898.148 984.741,893.78 994.517,889.501 1004.29,885.325 
  1014.07,881.262 1023.84,877.324 1033.62,873.523 1043.39,869.871 1053.17,866.377 1062.47,863.211 1071.77,860.207 1081.07,857.374 1090.37,854.72 1099.67,852.253 
  1108.98,849.979 1118.28,847.907 1127.58,846.041 1137.25,844.326 1146.92,842.846 1156.59,841.605 1166.26,840.609 1175.93,839.859 1185.6,839.359 1195.27,839.11 
  1204.94,839.113 1213.09,839.31 1221.23,839.686 1229.37,840.239 1237.51,840.968 1245.65,841.871 1253.79,842.946 1261.93,844.191 1270.07,845.602 1280.01,847.547 
  1289.95,849.729 1299.89,852.141 1309.83,854.775 1319.77,857.622 1329.71,860.672 1339.64,863.917 1349.58,867.344 1367.79,874.063 1386,881.291 1395.11,885.072 
  1404.21,888.952 1413.32,892.922 1422.42,896.973 1456.06,912.473 1489.69,928.46 1523.77,944.692 1557.84,960.546 1576.93,969.131 1596.02,977.433 1615.12,985.408 
  1634.21,993.02 1651.51,999.579 1668.81,1005.8 1686.11,1011.67 1703.41,1017.18 1723.22,1023.05 1743.03,1028.46 1762.84,1033.4 1782.65,1037.89 1800.99,1041.66 
  1819.33,1045.08 1837.67,1048.17 1856.01,1050.94 1874.09,1053.38 1892.18,1055.55 1910.26,1057.48 1928.34,1059.18 1945.9,1060.64 1963.45,1061.92 1981.01,1063.04 
  1998.56,1064.01 2034.56,1065.62 2070.55,1066.81 2109.99,1067.73 2149.43,1068.36 2206.71,1068.93 2264,1069.24 2275.75,1069.28 2287.51,1069.32 
  "/>
</svg>
